<?xml version="1.0" encoding="UTF-8" standalone="no"?>
<!-- Created with Inkscape (http://www.inkscape.org/) -->

<svg
   xmlns:dc="http://purl.org/dc/elements/1.1/"
   xmlns:cc="http://creativecommons.org/ns#"
   xmlns:rdf="http://www.w3.org/1999/02/22-rdf-syntax-ns#"
   xmlns:svg="http://www.w3.org/2000/svg"
   xmlns="http://www.w3.org/2000/svg"
   xmlns:sodipodi="http://sodipodi.sourceforge.net/DTD/sodipodi-0.dtd"
   xmlns:inkscape="http://www.inkscape.org/namespaces/inkscape"
   width="550"
   height="250"
   id="svg2"
   version="1.1"
   inkscape:version="0.48.4 r9939"
   sodipodi:docname="logo.svg">
  <defs
     id="defs4">
    <clipPath
       clipPathUnits="userSpaceOnUse"
       id="clipPath5870">
      <path
         style="fill:#ffffff;stroke:none"
         d="m 317.88396,1158.2844 c -0.14683,-82.7299 73.85773,-158.1924 159.5774,-157.0439 151.92755,2.0356 121.20389,56.8187 120.55408,141.6303 4.37984,71.495 7.08102,137.9655 -7.89727,154.745 -101.72241,113.9545 -265.84369,19.8089 -272.23421,-139.3314 z"
         id="path5872"
         inkscape:connector-curvature="0"
         sodipodi:nodetypes="cscsc" />
    </clipPath>
  </defs>
  <sodipodi:namedview
     id="base"
     pagecolor="#ffffff"
     bordercolor="#666666"
     borderopacity="1.0"
     inkscape:pageopacity="0.0"
     inkscape:pageshadow="2"
     inkscape:zoom="0.70710678"
     inkscape:cx="653.82274"
     inkscape:cy="566.43872"
     inkscape:document-units="px"
     inkscape:current-layer="layer1"
     showgrid="false"
     inkscape:window-width="1916"
     inkscape:window-height="1161"
     inkscape:window-x="1600"
     inkscape:window-y="18"
     inkscape:window-maximized="0" />
  <metadata
     id="metadata7">
    <rdf:RDF>
      <cc:Work
         rdf:about="">
        <dc:format>image/svg+xml</dc:format>
        <dc:type
           rdf:resource="http://purl.org/dc/dcmitype/StillImage" />
        <dc:title></dc:title>
      </cc:Work>
    </rdf:RDF>
  </metadata>
  <g
     inkscape:label="Layer 1"
     inkscape:groupmode="layer"
     id="layer1"
     transform="translate(0,-802.36218)">
    <g
       id="g4011"
       transform="matrix(1.3356786,0,0,1.3356786,-378.85878,-468.745)">
      <g
         id="g5610"
         transform="matrix(0.348221,0,0,0.34279822,206.34667,639.8973)"
         inkscape:export-filename="/home/foranw/Dropbox/Personal/STweb/vone/public/favicon.ico.png"
         inkscape:export-xdpi="57.600018"
         inkscape:export-ydpi="57.600018">
        <g
           id="g5745"
           clip-path="url(#clipPath5870)">
          <path
             sodipodi:type="arc"
             style="fill:#fffdff;fill-opacity:1;fill-rule:nonzero;stroke:none"
             id="path5579"
             sodipodi:cx="314.5"
             sodipodi:cy="524.86218"
             sodipodi:rx="149.5"
             sodipodi:ry="149.5"
             d="m 464,524.86218 c 0,82.56657 -66.93343,149.5 -149.5,149.5 -82.56657,0 -149.5,-66.93343 -149.5,-149.5 0,-82.56657 66.93343,-149.5 149.5,-149.5 82.28951,0 149.10761,66.50161 149.49831,148.79019"
             transform="matrix(1.0087525,0,0,1.0087525,169.69453,638.09919)"
             sodipodi:start="0"
             sodipodi:end="6.2784374"
             sodipodi:open="true" />
          <g
             id="g5273"
             transform="translate(2.0294373,304.71277)">
            <path
               transform="translate(174.94719,656.19305)"
               inkscape:connector-curvature="0"
               id="path5149"
               d="m 325.70598,357.3841 c 4.05456,-0.4229 11.20035,-1.52827 15.87955,-2.45638 l 8.50761,-1.68746 7.92942,-7.24576 c 4.36118,-3.98517 9.02521,-8.62931 10.36451,-10.3203 l 2.43506,-3.07452 -0.4881,-0.78976 -0.48809,-0.78976 -3.64017,-0.003 -3.64016,-0.003 -2.43209,-1.48302 -2.43209,-1.48301 -2.07855,-2.72511 c -1.1432,-1.49881 -3.27882,-3.99778 -4.74583,-5.55327 l -2.6673,-2.82774 0,-1.78521 0,-1.78522 5.04396,-5.27238 c 2.77417,-2.8998 5.04394,-5.56255 5.04394,-5.91722 0,-0.35467 1.1653,-1.95533 2.58954,-3.55705 1.42425,-1.60172 3.50123,-4.27597 4.6155,-5.94277 l 2.02595,-3.03056 -1.12353,-1.60407 -1.12353,-1.60405 0,-1.74099 c 0,-0.95755 0.50437,-2.88772 1.12083,-4.28929 0.61645,-1.40157 1.32987,-3.85354 1.58537,-5.44885 l 0.46456,-2.90053 1.46757,-0.78543 1.46758,-0.78541 2.26971,0 2.26971,0 5.87837,-2.71598 c 3.2331,-1.49379 6.36899,-2.71598 6.96864,-2.71598 l 1.0903,0 0.88392,1.93998 c 1.07079,2.35015 1.31444,2.3635 5.923,0.32492 l 3.65111,-1.61506 3.02682,2.00306 c 1.66476,1.10168 3.3888,2.00306 3.83121,2.00306 0.44241,0 2.66062,-1.04759 4.92934,-2.32798 l 4.12494,-2.32798 2.10977,0 2.10977,0 2.2089,1.14226 2.20889,1.14227 1.52167,2.08891 1.52166,2.08892 6.10919,-3.29525 6.10918,-3.29525 2.34359,0.33382 c 1.28899,0.1836 2.90715,0.58074 3.59594,0.88255 l 1.25233,0.54872 2.09264,-5.64562 c 2.70281,-7.29181 5.62838,-18.59394 7.0968,-27.41663 l 1.16279,-6.98632 0.47111,-10.86388 0.47111,-10.86389 -0.92431,-9.31191 -0.92431,-9.31191 -3.18449,-4.5931 c -1.75148,-2.5262 -4.75377,-7.58955 -6.67176,-11.25188 -1.91799,-3.66234 -4.34224,-8.23017 -5.38723,-10.15076 l -1.89997,-3.49196 0.41613,-8.95668 0.41613,-8.95668 -2.50628,0.2926 -2.50629,0.29259 -4.20728,-4.32876 c -2.31401,-2.38082 -4.64491,-5.11671 -5.17978,-6.07978 l -0.97248,-1.751 -0.0389,-2.71597 -0.0389,-2.71597 -0.96641,-1.90978 -0.96641,-1.90977 -2.32012,-0.47746 c -1.27607,-0.26259 -3.08215,-0.88691 -4.01355,-1.38736 l -1.69342,-0.90992 -0.53235,-1.7468 c -0.29273,-0.96075 -1.0689,-2.35791 -1.72476,-3.1048 l -1.19248,-1.35798 -3.30573,0 -3.30576,0 -3.16991,-3.60122 -3.16992,-3.60122 0,-1.927733 0,-1.92773 2.45338,0.49068 2.4534,0.49068 -1.41263,-1.56094 -1.41263,-1.56093 -3.17474,-0.8446 c -1.74611,-0.46451 -5.50803,-2.06519 -8.35984,-3.55704 l -5.18508,-2.71245 -5.6788,-4.96123 -5.67881,-4.96124 -1.16398,0.45936 c -0.6402,0.25265 -2.62506,0.6382 -4.41082,0.85678 l -3.24683,0.39742 -2.01171,-2.17066 c -1.10644,-1.19387 -3.04318,-3.9735 -4.30387,-6.17696 l -2.29216,-4.00627 -6.80515,-1.65443 c -7.23593,-1.75916 -19.75308,-4.05046 -21.84466,-3.99874 l -1.25634,0.0311 1.93998,1.0401 c 1.06699,0.57206 3.77789,1.42837 6.02421,1.90292 l 4.08422,0.86282 4.69558,2.37032 4.69559,2.37033 -0.27143,1.32163 -0.27144,1.32163 -4.74584,-0.17901 -4.74584,-0.17901 0.40835,1.56158 0.40837,1.56156 1.26104,0.64503 c 0.69358,0.35476 2.83245,0.87735 4.75303,1.1613 5.30282,0.784 10.66704,2.73384 15.80427,5.74468 2.55261,1.49605 6.38906,3.35898 8.52544,4.13986 2.13638,0.78087 4.2582,1.79365 4.71515,2.25063 l 0.83084,0.83086 0.0171,6.16676 0.0171,6.166753 5.60886,5.64654 5.60886,5.64655 0,1.33974 0,1.33974 -6.01395,-0.005 -6.01394,-0.005 -2.9077,-0.80751 -2.9077,-0.8075 -7.14388,-6.75409 -7.14387,-6.75409 1.90365,2.71597 1.90367,2.71597 0,5.69452 0,5.6945 -1.83195,1.48342 -1.83193,1.48346 -2.048,0.0171 c -1.12642,0.01 -4.93112,-0.77017 -8.45491,-1.73236 l -6.40689,-1.74942 -0.43534,-1.37163 -0.43533,-1.37161 -0.72371,0 c -1.05166,0 -0.88959,0.72096 0.46708,2.07763 l 1.19077,1.19077 -0.80815,0.97376 -0.80815,0.97377 -4.19342,0.4328 -4.19342,0.4328 -1.88173,1.23296 c -1.03496,0.67813 -3.02516,2.82514 -4.42265,4.77112 l -2.54091,3.53814 1.07737,2.83068 1.07736,2.83067 2.5319,0.51784 2.53192,0.51782 1.4273,1.2917 1.42732,1.2917 5.58475,0.93507 5.58475,0.93508 1.47311,4.18305 c 0.81021,2.30067 1.70445,4.39527 1.98719,4.65465 l 0.51409,0.47163 -0.43258,-4.39918 -0.43258,-4.39918 1.07677,-1.42076 c 0.59222,-0.78143 1.08786,-1.89415 1.10145,-2.47273 l 0.0247,-1.05197 -2.0081,-2.38648 -2.00808,-2.38648 0.2879,-3.01897 0.28791,-3.01898 -2.15978,-1.27581 -2.15977,-1.27581 0,-1.38468 0,-1.38467 4.84995,0.0186 c 2.66747,0.0101 6.17049,0.32509 7.78449,0.6998 l 2.93455,0.68131 3.45006,3.18016 c 1.89752,1.74906 3.64566,3.18013 3.88475,3.18013 l 0.4347,0 -0.22336,-2.13397 -0.22337,-2.13399 1.64411,-0.23462 1.64411,-0.23462 4.17583,4.60566 4.17583,4.60566 5.12352,2.31834 5.12351,2.31834 1.27843,1.82521 1.27841,1.82519 0,2.20634 0,2.20632 -0.86773,1.69497 c -0.47726,0.93223 -2.11326,2.99805 -3.63556,4.5907 l -2.76779,2.89573 0.52681,0.5268 0.52682,0.52682 1.65603,-1.48256 c 0.91081,-0.81541 3.03944,-3.66504 4.73027,-6.33252 l 3.07424,-4.84995 0.89011,0 c 0.48956,0 3.25183,1.62838 6.13838,3.61861 l 5.24827,3.61861 0,1.02257 0,1.02255 -2.13399,0.4806 c -1.17368,0.26433 -3.43994,0.80729 -5.03613,1.20659 l -2.90217,0.72597 -0.33682,1.71819 c -0.18525,0.94499 -0.27606,2.75733 -0.20181,4.02743 l 0.13502,2.30927 -2.90997,1.3828 -2.90997,1.3828 0,1.76121 0,1.76121 -1.20799,1.72465 -1.208,1.72465 -3.42066,0 -3.42065,0 -0.8033,1.50097 c -1.15063,2.14998 -1.03573,2.37899 1.19358,2.37899 l 1.99689,0 -0.2509,1.15507 -0.2509,1.15507 -4.99454,3.30688 c -2.74699,1.8188 -5.25652,3.83069 -5.57673,4.47089 -0.32021,0.64018 -1.12022,2.33664 -1.77778,3.76987 l -1.19558,2.6059 0.75837,1.41705 0.75838,1.41705 0,3.12512 0,3.12512 -5.41424,6.04381 -5.41425,6.04379 -0.0177,1.6122 -0.0177,1.6122 2.01432,4.95728 2.01433,4.95729 -0.42688,2.6305 -0.42686,2.6305 -1.21735,1.85791 -1.21735,1.85791 -1.34009,-0.014 -1.3401,-0.014 -2.40062,-2.89599 -2.40062,-2.89597 -0.57822,-3.08969 c -0.31803,-1.69933 -0.88822,-3.66888 -1.26708,-4.3768 l -0.68884,-1.28711 -2.92824,1.04476 -2.92825,1.04477 -2.71597,0.0448 c -1.49378,0.0245 -3.50166,0.25522 -4.46196,0.51257 l -1.74597,0.46789 0,1.80368 0,1.80369 -0.80154,0.49537 -0.80153,0.49537 -2.84487,-1.67851 -2.84488,-1.67852 -3.53152,0.51571 -3.53153,0.5157 -3.59611,2.28846 -3.59613,2.28846 -0.54059,6.48987 -0.54061,6.48986 1.16279,2.2168 c 1.32214,2.52061 6.27412,7.425 8.80563,8.721 0.93222,0.47726 2.57111,0.86774 3.64195,0.86774 l 1.947,0 1.20799,-1.72466 1.20799,-1.72463 0,-1.7119 0,-1.71189 1.21941,-1.21941 1.21943,-1.21942 4.8935,0 4.8935,0 1.03618,1.24851 1.03616,1.24852 -0.17472,6.02045 -0.17472,6.02048 1.0101,0.83831 c 0.55556,0.46107 2.52907,1.17959 4.38559,1.59672 l 3.37551,0.75843 1.2355,1.2355 1.23549,1.23549 0.29741,5.88965 0.29742,5.88964 3.4595,1.5303 3.45949,1.5303 1.10746,-0.42497 1.10744,-0.42496 0,-1.18834 0,-1.18835 1.65416,0 1.65416,0 -0.43161,3.21785 -0.4316,3.21785 -1.52363,1.52363 -1.52363,1.52363 -3.4444,0.38823 -3.4444,0.38824 -6.14842,-3.2395 c -3.38165,-1.78117 -6.84683,-3.92389 -7.70043,-4.76104 l -1.55198,-1.52209 -0.84029,-2.5021 -0.84027,-2.50211 -2.65169,-0.18733 c -1.45842,-0.10304 -4.49353,-0.56649 -6.7447,-1.02991 l -4.09301,-0.84257 -3.49247,-2.66585 -3.49249,-2.66587 -2.39198,1.23694 -2.39199,1.23694 -2.03204,-0.51001 c -1.11763,-0.2805 -5.53573,-2.2169 -9.81799,-4.30309 l -7.78596,-3.79309 -4.43474,-3.95261 -4.43474,-3.95263 -2.35958,-7.52127 -2.35959,-7.52127 -2.48528,-1.552 -2.48528,-1.55198 -1.75784,-3.10396 -1.75785,-3.10398 -0.0128,1.63929 -0.0127,1.63928 2.36564,2.97678 2.36565,2.97679 -0.23166,2.2896 -0.23167,2.28961 -1.30748,0.81842 -1.30747,0.81841 -2.09276,-1.12001 -2.09278,-1.12002 -1.87849,-2.46284 -1.8785,-2.46285 -3.75719,-11.12516 -3.75718,-11.12515 -0.54052,-6.06013 -0.54052,-6.06013 -2.56996,-1.22553 -2.56997,-1.22554 -0.95418,-2.02624 -0.95418,-2.02625 0.14487,-11.07981 0.14488,-11.0798 1.13793,-3.22524 1.13792,-3.22523 3.08788,-4.00245 3.08787,-4.00246 0,-4.05314 0,-4.05314 -2.59435,-5.61512 -2.59434,-5.61511 -2.25561,0.04 -2.2556,0.04 -0.23015,-1.60995 -0.23015,-1.60993 -2.95849,-3.58021 -2.95851,-3.5802 0.3774,-3.92777 0.37741,-3.92777 -0.88666,0 c -0.48766,0 -2.77404,-1.25315 -5.08084,-2.78478 l -4.19418,-2.78477 -1.41982,0.27073 -1.41983,0.27073 -0.2244,1.54406 -0.2244,1.54405 -9.4755,0 -9.4755,0 -0.92307,0.63807 -0.92307,0.63806 -2.1809,-0.25006 -2.1809,-0.25007 -0.24635,-1.73358 -0.24634,-1.73357 2.8073,-1.33871 2.80731,-1.33872 1.59493,0.99606 1.59493,0.99604 3.80043,-0.91171 3.80041,-0.9117 0.47319,-0.76564 0.47319,-0.76564 -0.86358,-0.86356 c -1.29696,-1.29697 -1.06173,-3.01598 1.07337,-7.8438 l 1.93693,-4.37977 1.99251,-0.90785 1.99251,-0.90784 3.05448,0.81529 3.05449,0.81528 0,-0.58515 c 0,-0.32185 -0.5238,-0.78616 -1.16399,-1.03184 l -1.16399,-0.446663 0,-1.96433 0,-1.96433 1.55198,-1.55199 1.55199,-1.55199 1.78478,0 1.78479,0 0.87982,0.87983 0.87982,0.87983 3.48752,-2.04382 3.48751,-2.04381 1.63273,0 c 0.898,0 2.76015,0.47108 4.13813,1.04682 l 2.5054,1.04682 3.48361,-0.51054 3.48361,-0.51055 -4.65595,-0.96358 c -2.56078,-0.52995 -5.87443,-1.20778 -7.36369,-1.50626 l -2.70773,-0.54269 -0.23399,-1.2274 -0.23399,-1.2274 4.41492,-0.98802 c 2.42821,-0.5434 6.33103,-1.64725 8.67294,-2.45299 l 4.25804,-1.46498 3.96867,-3.99611 c 2.18277,-2.19788 5.01627,-4.64345 6.29666,-5.43462 l 2.32797,-1.4385 3.22038,-0.003 3.22036,-0.003 2.78227,-2.78227 2.78228,-2.78228 -3.28667,0.53459 c -4.83938,0.78709 -19.36434,5.57732 -27.15044,8.95398 -9.47181,4.10771 -19.60238,10.04378 -28.71579,16.82622 l -7.76102,5.77593 -7.92537,7.882683 -7.92539,7.88267 -5.93309,7.99746 c -7.00432,9.44142 -11.10257,16.29537 -16.087,26.90409 l -3.65445,7.77801 -2.75686,8.56814 c -9.87992,30.70613 -9.87992,61.57251 0,92.27864 l 2.75686,8.56813 3.73063,7.93954 c 4.48768,9.55067 10.0901,18.95414 16.43078,27.57857 l 4.69461,6.38547 9.46348,9.31191 9.46349,9.31191 8.08965,5.7958 8.08966,5.79579 10.0879,5.10166 10.0879,5.10164 9.69991,3.26424 9.69989,3.26422 7.81544,1.57662 c 9.82744,1.98252 17.97525,2.84845 27.88021,2.96303 l 7.75992,0.0898 7.37193,-0.76891 z"
               style="fill:#aaccff" />
            <path
               style="fill:#000000;fill-opacity:1"
               d="m 481.51675,1005.2859 -0.67482,-0.2712 0,-9.76372 0,-9.76373 1.40837,-0.89315 1.40836,-0.89316 0.78233,0 0.78233,0 1.40836,0.89316 1.40837,0.89315 0,9.76149 0,9.76146 -0.76933,0.2925 -0.76933,0.2925 -2.15491,-0.019 -2.1549,-0.019 z"
               id="path5458"
               inkscape:connector-curvature="0" />
            <path
               style="fill:#000000;fill-opacity:1"
               d="m 468.9361,1004.2001 -0.19007,-0.4953 0.37158,-4.07846 0.37157,-4.0785 0.39459,-0.40602 0.39459,-0.40601 0.95319,0.20935 0.95319,0.20936 0.15085,0.39312 0.15086,0.39312 -0.47718,4.11594 c -0.26244,2.2638 -0.54986,4.2336 -0.6387,4.3774 l -0.16153,0.2613 -1.04144,0 -1.04143,0 z"
               id="path5456"
               inkscape:connector-curvature="0" />
            <path
               style="fill:#000000;fill-opacity:1"
               d="m 497.54008,1004.4805 c -0.0843,-0.1364 -0.37433,-2.1688 -0.64461,-4.5166 l -0.49141,-4.2687 0.1703,-0.27555 c 0.0937,-0.15155 0.57917,-0.36535 1.0789,-0.47511 l 0.90861,-0.19956 0.40263,0.33414 0.40262,0.33415 0.36003,3.36642 0.36004,3.36641 -0.10012,1.1997 -0.10012,1.1997 -1.09684,0.091 -1.09685,0.091 -0.15318,-0.2478 z"
               id="path5454"
               inkscape:connector-curvature="0" />
            <path
               style="fill:#000000;fill-opacity:1"
               d="m 455.27362,1002.3892 -0.52486,-0.1371 0,-1.0037 c 0,-1.25817 1.44369,-8.01045 1.7864,-8.35522 l 0.25376,-0.25528 0.94967,0.20858 0.94968,0.20859 0.18594,0.48454 0.18593,0.48455 -0.83997,4.06098 -0.83997,4.06096 -0.34098,0.2204 c -0.36511,0.2359 -0.9224,0.2431 -1.7656,0.023 z"
               id="path5452"
               inkscape:connector-curvature="0" />
            <path
               style="fill:#000000;fill-opacity:1"
               d="m 511.80395,1002.2211 -0.30326,-0.3749 -0.78318,-3.5131 c -0.43076,-1.93219 -0.78319,-3.85878 -0.78319,-4.2813 l 0,-0.76822 0.76933,-0.2925 c 0.9198,-0.34971 1.06856,-0.35419 1.55263,-0.0468 l 0.37246,0.23655 0.87862,4.14465 0.87862,4.14472 -0.14712,0.3834 -0.14713,0.3834 -0.65408,0.1754 c -0.97382,0.2612 -1.29843,0.2232 -1.6337,-0.1913 z"
               id="path5450"
               inkscape:connector-curvature="0" />
            <path
               style="fill:#000000;fill-opacity:1"
               d="m 441.65788,998.69902 c -0.35427,-0.14294 -0.73549,-0.40771 -0.84714,-0.58837 l -0.20301,-0.32847 1.38826,-4.16552 1.38826,-4.16551 0.35865,-0.12551 c 0.19725,-0.069 0.68328,-0.0439 1.08006,0.0559 l 0.72142,0.18146 0.29497,0.46762 0.29497,0.46762 -1.28151,3.87442 c -1.61069,4.86968 -1.66522,4.94351 -3.19493,4.32631 z"
               id="path5448"
               inkscape:connector-curvature="0" />
            <path
               style="fill:#000000;fill-opacity:1"
               d="m 525.76178,998.62342 -0.48679,-0.37631 -1.25515,-3.97829 -1.25515,-3.9783 0.38236,-0.46071 0.38236,-0.46071 1.05919,0.0901 1.0592,0.0901 1.31387,4.16519 1.31386,4.16519 -0.3979,0.37642 c -0.21884,0.20704 -0.67491,0.45903 -1.01348,0.55998 l -0.61557,0.18356 -0.4868,-0.37631 z"
               id="path5446"
               inkscape:connector-curvature="0" />
            <path
               style="fill:#000000;fill-opacity:1"
               d="m 428.42399,993.58652 -0.68147,-0.2737 -0.18344,-0.47806 -0.18345,-0.47805 1.5719,-3.65307 c 0.86454,-2.00919 1.74661,-3.83745 1.96016,-4.06279 l 0.38827,-0.40971 0.83282,0.2776 0.83281,0.27761 0.2743,0.43484 0.27429,0.43485 -1.71972,3.89616 c -1.98268,4.49194 -2.04403,4.56546 -3.36647,4.03432 z"
               id="path5444"
               inkscape:connector-curvature="0" />
            <path
               style="fill:#000000;fill-opacity:1"
               d="m 538.90046,993.22343 c -0.242,-0.37116 -1.12091,-2.20481 -1.95312,-4.0748 l -1.51312,-3.39997 0.28873,-0.53949 0.28872,-0.53949 0.80453,-0.20192 0.80452,-0.20192 0.3727,0.39236 c 0.20499,0.2158 1.0612,1.95629 1.90269,3.86774 l 1.52997,3.47539 0,0.6192 0,0.6192 -0.94452,0.32926 c -1.19292,0.41585 -1.06664,0.44345 -1.5811,-0.34556 z"
               id="path5442"
               inkscape:connector-curvature="0" />
            <path
               style="fill:#000000;fill-opacity:1"
               d="m 415.38405,986.97963 -1.1247,-0.59375 0,-0.7018 0,-0.7018 4.83662,-8.36366 c 2.66014,-4.60002 4.98828,-8.46282 5.17364,-8.58401 0.18537,-0.12119 0.70819,-0.22242 1.16182,-0.22494 l 0.82478,-0.005 0.59984,0.59984 0.59985,0.59984 0,0.79443 0,0.79443 -4.40244,7.67835 c -2.42134,4.2231 -4.65745,8.04951 -4.96913,8.50314 l -0.56669,0.82479 -0.50444,-0.0133 c -0.27744,-0.007 -1.01056,-0.28044 -1.62915,-0.60701 z"
               id="path5440"
               inkscape:connector-curvature="0" />
            <path
               style="fill:#000000;fill-opacity:1"
               d="m 551.10314,987.225 c -0.24244,-0.30936 -2.76491,-4.65333 -8.95671,-15.42439 l -0.72035,-1.25309 0,-0.71483 0,-0.71482 0.61153,-0.6564 0.61153,-0.65639 0.8131,0.005 c 0.4472,0.002 0.97833,0.10957 1.18028,0.23787 0.20195,0.12831 2.53009,3.98206 5.17365,8.5639 l 4.80646,8.33062 0,0.72298 0,0.72299 -1.18774,0.60594 c -1.37345,0.70069 -1.92117,0.75495 -2.33175,0.23104 z"
               id="path5438"
               inkscape:connector-curvature="0" />
            <path
               style="fill:#000000;fill-opacity:1"
               d="m 403.38719,979.17807 -0.52486,-0.3057 0,-0.73451 0,-0.73451 2.28899,-3.15633 c 1.25895,-1.73598 2.41382,-3.23348 2.56638,-3.32777 l 0.27739,-0.17143 0.7241,0.18174 0.7241,0.18173 0.33953,0.63442 0.33953,0.63442 -1.17107,1.68643 c -0.64408,0.92754 -1.77147,2.52269 -2.5053,3.54478 l -1.33424,1.85833 -0.59984,0.007 c -0.32991,0.004 -0.83603,-0.13051 -1.12471,-0.29865 z"
               id="path5436"
               inkscape:connector-curvature="0" />
            <path
               style="fill:#000000;fill-opacity:1"
               d="m 561.59147,976.33184 c -1.27603,-1.7436 -2.4181,-3.43384 -2.53794,-3.75608 l -0.21789,-0.58589 0.61124,-0.61124 0.61123,-0.61123 0.64488,0.0934 0.64489,0.0934 2.48585,3.40928 c 1.36721,1.8751 2.48584,3.52841 2.48584,3.67403 0,0.14563 -0.26993,0.5347 -0.59984,0.86461 l -0.59984,0.59985 -0.60418,0 -0.60418,0 -2.32006,-3.17018 z"
               id="path5434"
               inkscape:connector-curvature="0" />
            <path
               style="fill:#000000;fill-opacity:1"
               d="m 392.2901,970.18042 -0.52487,-0.3057 0,-0.77634 0,-0.77634 1.24802,-1.38319 c 2.74922,-3.04699 4.51936,-4.83228 4.79127,-4.83228 0.38863,0 1.75867,1.39441 1.75867,1.78995 0,0.17468 -1.29328,1.73291 -2.87395,3.46272 l -2.87396,3.14513 -0.50016,-0.009 c -0.27509,-0.005 -0.73635,-0.14668 -1.02502,-0.31482 z"
               id="path5432"
               inkscape:connector-curvature="0" />
            <path
               style="fill:#000000;fill-opacity:1"
               d="m 572.33623,967.47669 -2.71752,-3.02768 0,-0.71442 0,-0.71443 0.73368,-0.48073 0.73367,-0.48072 0.43794,0.24887 c 0.49216,0.27968 4.7838,4.97994 5.49879,6.02236 l 0.46287,0.67482 -0.49129,0.74981 -0.4913,0.7498 -0.72465,0 -0.72466,0 z"
               id="path5430"
               inkscape:connector-curvature="0" />
            <path
               style="fill:#000000;fill-opacity:1"
               d="m 382.16774,960.00712 -0.59984,-0.59985 0,-0.5578 0,-0.5578 2.62431,-2.39113 c 1.44338,-1.31512 2.9898,-2.62801 3.4365,-2.91753 l 0.81218,-0.5264 0.76241,0.7624 c 0.93391,0.93392 0.94343,1.16058 0.0876,2.08476 -1.18956,1.28452 -5.9012,5.30319 -6.21766,5.30319 -0.1681,0 -0.57556,-0.26993 -0.90548,-0.59984 z"
               id="path5428"
               inkscape:connector-curvature="0" />
            <path
               style="fill:#000000;fill-opacity:1"
               d="m 582.43876,957.86347 c -1.68993,-1.50892 -3.18459,-2.93331 -3.32147,-3.1653 l -0.24887,-0.42182 0.48072,-0.73367 0.48073,-0.73368 0.74213,0 0.74212,0 2.99998,2.72796 2.99998,2.72797 0,0.70413 0,0.70412 -0.66658,0.46689 c -0.36661,0.25679 -0.77223,0.46689 -0.90136,0.46689 -0.12913,0 -1.61745,-1.23457 -3.30738,-2.74349 z"
               id="path5426"
               inkscape:connector-curvature="0" />
            <path
               style="fill:#000000;fill-opacity:1"
               d="m 373.15166,948.89158 -0.61829,-0.61829 0.0934,-0.63155 0.0934,-0.63155 3.40826,-2.49918 c 1.87454,-1.37456 3.52786,-2.49919 3.67404,-2.49919 0.14617,0 0.544,0.27823 0.88406,0.61829 l 0.61829,0.61829 -0.0934,0.65168 -0.0934,0.65169 -3.40107,2.47904 c -1.87058,1.36348 -3.5239,2.47905 -3.67404,2.47905 -0.15013,0 -0.5512,-0.27823 -0.89125,-0.61828 z"
               id="path5424"
               inkscape:connector-curvature="0" />
            <path
               style="fill:#000000;fill-opacity:1"
               d="m 591.19632,947.0151 -3.43236,-2.49477 -0.0934,-0.63597 -0.0934,-0.63596 0.61829,-0.61829 c 0.34006,-0.34006 0.73743,-0.61829 0.88305,-0.61829 0.14562,0 1.79894,1.11864 3.67404,2.48585 l 3.40927,2.48585 0.0934,0.64488 0.0934,0.64489 -0.61829,0.61829 c -0.34005,0.34005 -0.72704,0.61828 -0.85996,0.61828 -0.13293,0 -1.78625,-1.12264 -3.67404,-2.49476 z"
               id="path5422"
               inkscape:connector-curvature="0" />
            <path
               style="fill:#000000;fill-opacity:1"
               d="m 365.69754,937.47126 c -0.31826,-0.34161 -0.73949,-1.0094 -0.93606,-1.48399 l -0.35742,-0.86287 0.15719,-0.40963 0.15719,-0.40963 8.41847,-4.84438 8.41848,-4.84439 0.68933,0 0.68932,0 0.68245,0.47801 0.68245,0.47801 -0.0908,1.21313 -0.0909,1.21313 -3.59905,2.09581 c -7.85418,4.57367 -13.22198,7.62895 -13.71927,7.80883 l -0.52272,0.18908 -0.57865,-0.62111 z"
               id="path5420"
               inkscape:connector-curvature="0" />
            <path
               style="fill:#000000;fill-opacity:1"
               d="m 358.84729,924.24147 c -0.16496,-0.20619 -0.39065,-0.67106 -0.50152,-1.03304 l -0.20158,-0.65814 0.72433,-0.47459 c 0.39838,-0.26103 2.24994,-1.13835 4.11456,-1.9496 l 3.39023,-1.47499 0.5456,0.292 0.5456,0.29199 0.19238,0.76653 0.19239,0.76653 -0.41379,0.39838 c -0.55184,0.53129 -7.13359,3.44983 -7.77989,3.44983 l -0.50837,0 z"
               id="path5406"
               inkscape:connector-curvature="0" />
            <path
               style="fill:#000000;fill-opacity:1"
               d="m 605.08763,922.99988 c -1.85401,-0.85595 -3.51479,-1.70015 -3.69064,-1.876 l -0.31972,-0.31972 0.20106,-0.8011 0.20106,-0.8011 0.51464,-0.27542 0.51464,-0.27543 3.42482,1.51147 c 1.88365,0.8313 3.65654,1.58072 3.93975,1.66536 l 0.51493,0.1539 0.18477,0.58215 0.18476,0.58215 -0.48166,0.73511 -0.48167,0.73512 -0.66791,-0.0301 -0.66791,-0.0301 z"
               id="path5404"
               inkscape:connector-curvature="0" />
            <path
               style="fill:#000000;fill-opacity:1"
               d="m 353.75524,911.04494 c -0.16133,-0.20619 -0.36603,-0.6723 -0.45488,-1.03578 l -0.16156,-0.66089 0.34318,-0.43349 0.34318,-0.43349 3.99804,-1.24675 3.99805,-1.24676 0.39637,0.32896 c 0.218,0.18093 0.48495,0.6819 0.59322,1.11327 l 0.19685,0.78431 -0.39237,0.37465 -0.39236,0.37464 -3.8886,1.22812 c -4.41574,1.3946 -4.18864,1.35228 -4.57912,0.85321 z"
               id="path5402"
               inkscape:connector-curvature="0" />
            <path
               style="fill:#000000;fill-opacity:1"
               d="m 610.25808,910.10968 -3.89898,-1.26476 -0.0901,-1.0626 -0.0901,-1.0626 0.4456,-0.36982 0.44561,-0.36982 4.11183,1.2971 4.11184,1.2971 0.29748,0.4716 0.29748,0.47159 -0.4182,0.87254 -0.4182,0.87254 -0.44759,0.0559 c -0.24618,0.0308 -2.20214,-0.5132 -4.34658,-1.20882 z"
               id="path5400"
               inkscape:connector-curvature="0" />
            <path
               style="fill:#000000;fill-opacity:1"
               d="m 350.15564,897.37901 -0.37039,-0.23526 -0.18033,-0.90165 -0.18033,-0.90166 0.40075,-0.32579 0.40076,-0.3258 3.57636,-0.78211 c 1.96699,-0.43016 3.88549,-0.78211 4.26333,-0.78211 l 0.68697,0 0.31047,0.58013 c 0.17076,0.31907 0.31048,0.85096 0.31048,1.18198 l 0,0.60186 -0.25394,0.15694 c -0.20503,0.12672 -8.24455,1.98951 -8.51656,1.97332 -0.0425,-0.002 -0.24386,-0.11046 -0.44757,-0.23985 z"
               id="path5398"
               inkscape:connector-curvature="0" />
            <path
               style="fill:#000000;fill-opacity:1"
               d="m 616.10655,897.14225 c -1.07222,-0.23154 -2.92283,-0.63528 -4.11246,-0.89721 l -2.16297,-0.47623 -0.16906,-0.53267 -0.16906,-0.53267 0.30013,-0.78942 0.30014,-0.78942 0.70495,0 c 0.38772,0 2.31431,0.35195 4.28131,0.78211 l 3.57635,0.78211 0.40076,0.3258 0.40075,0.32579 -0.18033,0.90166 -0.18033,0.90165 -0.37039,0.23526 c -0.20371,0.12939 -0.43786,0.22377 -0.52034,0.20974 -0.0825,-0.014 -1.02723,-0.21497 -2.09945,-0.4465 z"
               id="path5396"
               inkscape:connector-curvature="0" />
            <path
               style="fill:#000000;fill-opacity:1"
               d="m 617.00631,883.0636 c -1.73204,-0.20891 -3.51558,-0.39252 -3.96341,-0.40803 l -0.81423,-0.0282 -0.31773,-0.59369 -0.31773,-0.59369 0.18428,-0.73426 0.18429,-0.73425 0.43543,-0.16709 0.43544,-0.1671 4.07556,0.45187 c 2.24156,0.24852 4.19287,0.52436 4.33625,0.61297 l 0.26068,0.16111 0,1.02147 0,1.02147 -0.58013,0.31048 c -0.31907,0.17076 -0.62274,0.29164 -0.67482,0.26862 -0.0521,-0.023 -1.51183,-0.21278 -3.24388,-0.42168 z"
               id="path5394"
               inkscape:connector-curvature="0" />
            <path
               style="fill:#000000;fill-opacity:1"
               d="m 347.57679,883.0273 c -0.10997,-0.10997 -0.19995,-0.64186 -0.19995,-1.18198 l 0,-0.98204 0.24175,-0.14941 c 0.13297,-0.0822 2.1899,-0.36429 4.57097,-0.62693 l 4.32921,-0.47752 0.37774,0.51659 0.37775,0.51659 0,0.65576 0,0.65576 -0.37491,0.3047 -0.3749,0.30471 -3.08596,0.33186 c -1.69727,0.18252 -3.66551,0.33186 -4.37385,0.33186 l -1.2879,0 z"
               id="path5392"
               inkscape:connector-curvature="0" />
            <path
               style="fill:#000000;fill-opacity:1"
               d="m 346.90645,870.83521 c -0.0834,-0.21735 -0.11291,-1.80318 -0.0656,-3.52408 l 0.0861,-3.1289 9.79911,-0.079 9.79911,-0.0791 0.58286,0.82886 c 0.32057,0.45587 0.80654,1.26678 1.07994,1.80203 l 0.49708,0.97318 -0.64168,1.27623 c -0.35292,0.70193 -0.84932,1.51242 -1.1031,1.8011 l -0.46143,0.52486 -9.71037,0 -9.71038,0 -0.15165,-0.39518 z"
               id="path5390"
               inkscape:connector-curvature="0" />
            <path
               style="fill:#000000;fill-opacity:1"
               d="m 601.40379,869.82202 -0.89316,-1.40836 0.006,-0.76607 0.006,-0.76606 0.89462,-1.42463 0.89462,-1.42463 9.75432,0 9.75432,0 0.2925,0.76933 0.2925,0.76933 0,2.0604 0,2.0604 -0.2925,0.76933 -0.2925,0.76933 -9.76147,0 -9.76149,0 -0.89315,-1.40837 z"
               id="path5388"
               inkscape:connector-curvature="0" />
            <path
               style="fill:#000000;fill-opacity:1"
               d="m 351.63385,855.18173 c -1.86504,-0.21771 -3.59405,-0.47376 -3.84225,-0.56899 l -0.45125,-0.17317 0.0932,-1.12711 0.0932,-1.12712 1.34964,-0.0767 1.34965,-0.0767 3.26818,0.3766 3.26817,0.3766 0.31937,0.50904 0.31936,0.50904 -0.29382,0.84061 -0.29382,0.84061 -0.89435,0.0465 c -0.49189,0.0256 -2.42029,-0.13158 -4.28534,-0.34929 z"
               id="path5386"
               inkscape:connector-curvature="0" />
            <path
               style="fill:#000000;fill-opacity:1"
               d="m 611.90022,854.86511 c -0.38942,-1.02426 -0.36869,-1.49366 0.0824,-1.86624 l 0.3749,-0.30965 4.0785,-0.37644 4.0785,-0.37644 0.4953,0.19007 0.49531,0.19007 0,1.04143 0,1.04144 -0.27098,0.16748 c -0.23704,0.14649 -7.64229,1.05704 -8.65911,1.06472 l -0.38233,0.003 -0.2925,-0.76933 z"
               id="path5384"
               inkscape:connector-curvature="0" />
            <path
               style="fill:#000000;fill-opacity:1"
               d="m 353.52601,841.34051 -3.29837,-0.72203 -0.41049,-0.41049 -0.41048,-0.41048 0.28288,-0.85424 0.28289,-0.85424 0.81386,-0.0961 0.81387,-0.0961 3.62933,0.77946 c 1.99614,0.4287 3.74518,0.85106 3.88677,0.93856 l 0.25744,0.15911 0,0.60186 c 0,0.33102 -0.13972,0.86291 -0.31048,1.18198 l -0.31047,0.58013 -0.96419,-0.0377 c -0.53031,-0.0207 -2.44846,-0.36263 -4.26256,-0.75974 z"
               id="path5382"
               inkscape:connector-curvature="0" />
            <path
               style="fill:#000000;fill-opacity:1"
               d="m 609.79313,841.34851 -0.30013,-0.78942 0.17201,-0.54196 0.17201,-0.54196 1.71014,-0.35134 c 0.94057,-0.19324 2.85733,-0.60412 4.25947,-0.91307 l 2.54933,-0.56173 0.52486,0.6281 0.52486,0.62811 0,0.52989 0,0.52989 -0.38824,0.32222 -0.38826,0.32222 -3.53472,0.76423 c -1.9441,0.42033 -3.86468,0.76424 -4.26796,0.76424 l -0.73323,0 z"
               id="path5380"
               inkscape:connector-curvature="0" />
            <path
               style="fill:#000000;fill-opacity:1"
               d="m 357.42422,827.94668 -3.89898,-1.28449 -0.0919,-1.0902 -0.0919,-1.0902 0.56007,-0.29974 0.56006,-0.29973 3.98421,1.26812 3.98421,1.26812 0.2871,0.51301 0.2871,0.51302 -0.39288,0.81971 -0.39288,0.81971 -0.44759,0.0736 -0.4476,0.0736 -3.89898,-1.28448 z"
               id="path5378"
               inkscape:connector-curvature="0" />
            <path
               style="fill:#000000;fill-opacity:1"
               d="m 606.56904,828.8814 -0.3599,-0.35991 0,-0.97318 0,-0.97318 4.22538,-1.38095 4.22539,-1.38096 0.39397,0.32697 c 0.21668,0.17983 0.48255,0.67991 0.59082,1.11128 l 0.19685,0.78431 -0.39236,0.36722 -0.39237,0.36721 -3.74946,1.23555 c -4.16315,1.37186 -4.22978,1.38418 -4.73832,0.87564 z"
               id="path5376"
               inkscape:connector-curvature="0" />
            <path
               style="fill:#000000;fill-opacity:1"
               d="m 362.57499,815.02339 c -1.95083,-0.87731 -3.75346,-1.80161 -4.00585,-2.054 l -0.45889,-0.45889 0.4096,-0.85717 0.40959,-0.85716 0.59704,-0.0725 0.59703,-0.0725 3.58707,1.60495 3.58707,1.60494 0.31191,0.49465 0.31191,0.49464 -0.46019,0.82007 -0.46019,0.82007 -0.43957,0.064 -0.43958,0.064 z"
               id="path5374"
               inkscape:connector-curvature="0" />
            <path
               style="fill:#000000;fill-opacity:1"
               d="m 601.57736,815.97806 c -0.25679,-0.36662 -0.46689,-0.88995 -0.46689,-1.16296 l 0,-0.49639 0.3749,-0.28519 c 0.2062,-0.15685 1.95985,-0.99323 3.89701,-1.85862 l 3.5221,-1.57344 0.52455,0.10102 0.52456,0.10102 0.37923,0.79125 0.37924,0.79124 -0.15758,0.41064 -0.15757,0.41063 -3.91153,1.71869 c -2.15134,0.94528 -4.03069,1.71869 -4.17633,1.71869 -0.14564,0 -0.4749,-0.29996 -0.73169,-0.66658 z"
               id="path5372"
               inkscape:connector-curvature="0" />
            <path
               style="fill:#000000;fill-opacity:1"
               d="m 381.66425,810.63437 c -0.3594,-0.13912 -4.31861,-2.3717 -8.79823,-4.96129 l -8.14478,-4.70833 -0.17163,-0.44729 -0.17164,-0.44728 0.71576,-1.31026 0.71576,-1.31026 0.65799,0 0.65798,0 8.34205,4.82111 c 4.58812,2.65161 8.4465,4.97975 8.57416,5.17364 l 0.23212,0.35254 -0.0783,1.03506 -0.0783,1.03506 -0.89976,0.51012 -0.89977,0.51012 -0.65345,-0.25294 z"
               id="path5370"
               inkscape:connector-curvature="0" />
            <path
               style="fill:#000000;fill-opacity:1"
               d="m 585.21463,810.04636 -0.59984,-0.59984 0.005,-0.82478 c 0.002,-0.45363 0.10375,-0.97981 0.22495,-1.16927 0.12119,-0.18947 3.9752,-2.51761 8.56446,-5.17365 l 8.34413,-4.82916 0.68683,0 0.68683,0 0.71552,1.34877 0.71552,1.34877 -0.30138,0.47778 -0.30138,0.47778 -5.99599,3.46766 c -3.2978,1.90722 -7.02768,4.0545 -8.28864,4.77173 l -2.29264,1.30406 -0.78155,0 -0.78156,0 -0.59984,-0.59985 z"
               id="path5368"
               inkscape:connector-curvature="0" />
            <path
               style="fill:#000000;fill-opacity:1"
               d="m 376.18828,790.81208 -3.36709,-2.43867 -0.16532,-0.43081 -0.16532,-0.43082 0.39045,-0.72957 0.39046,-0.72957 0.7741,0.0109 0.77411,0.0109 3.22415,2.4012 3.22416,2.40119 0,0.72002 0,0.72003 -0.66658,0.46689 c -0.36661,0.25679 -0.75195,0.46689 -0.8563,0.46689 -0.10435,0 -1.70491,-1.0974 -3.55682,-2.43867 z"
               id="path5366"
               inkscape:connector-curvature="0" />
            <path
               style="fill:#000000;fill-opacity:1"
               d="m 588.21859,792.65566 -0.64148,-0.64148 0.0934,-0.63267 0.0934,-0.63267 3.24184,-2.36632 3.24184,-2.36631 0.80158,0.0932 0.80158,0.0932 0.30118,0.86122 0.30117,0.86122 -1.01341,0.84604 c -1.50171,1.25368 -5.53179,4.12394 -6.0924,4.33907 l -0.48727,0.18699 -0.64148,-0.64148 z"
               id="path5364"
               inkscape:connector-curvature="0" />
            <path
               style="fill:#000000;fill-opacity:1"
               d="m 387.70855,782.37844 c -0.32566,-0.17831 -1.84052,-1.46565 -3.36637,-2.86075 l -2.77428,-2.53656 0,-0.51643 0,-0.51642 0.54848,-0.49637 0.54848,-0.49637 0.52702,0 0.52703,0 2.89845,2.58107 c 1.59416,1.41959 3.00539,2.76745 3.13608,2.99524 l 0.23762,0.41418 -0.31947,0.59694 c -0.17571,0.32832 -0.55606,0.72356 -0.84521,0.87831 l -0.52574,0.28136 z"
               id="path5362"
               inkscape:connector-curvature="0" />
            <path
               style="fill:#000000;fill-opacity:1"
               d="m 579.71256,782.20502 -0.49636,-0.54847 0.0228,-0.72619 0.0228,-0.72619 2.85543,-2.54933 c 1.5705,-1.40214 3.11145,-2.64588 3.42434,-2.76388 l 0.5689,-0.21454 0.60184,0.646 0.60184,0.64599 0,0.51859 0,0.51859 -3.14513,2.87396 -3.14512,2.87395 -0.40745,0 -0.40745,0 -0.49637,-0.54848 z"
               id="path5360"
               inkscape:connector-curvature="0" />
            <path
               style="fill:#000000;fill-opacity:1"
               d="m 397.12648,772.78111 c -0.24855,-0.20619 -1.55651,-1.60262 -2.90658,-3.10318 l -2.45467,-2.72827 0,-0.68776 0,-0.68776 0.52487,-0.39842 c 0.28867,-0.21914 0.75045,-0.40272 1.02617,-0.40797 l 0.50132,-0.01 2.8728,3.17705 c 1.58004,1.74738 2.8728,3.30561 2.8728,3.46273 0,0.35502 -1.3795,1.75802 -1.72857,1.75802 -0.14092,0 -0.45959,-0.1687 -0.70814,-0.3749 z"
               id="path5358"
               inkscape:connector-curvature="0" />
            <path
               style="fill:#000000;fill-opacity:1"
               d="m 570.28529,772.68911 -0.66658,-0.46689 0,-0.69992 0,-0.69992 2.72815,-3.03209 2.72814,-3.0321 0.51444,0 0.51444,0 0.65639,0.61153 c 0.36102,0.33634 0.6564,0.74037 0.6564,0.89786 0,0.25943 -2.70924,3.44847 -5.02394,5.91367 -1.04515,1.11311 -1.1926,1.14864 -2.10744,0.50786 z"
               id="path5356"
               inkscape:connector-curvature="0" />
            <path
               style="fill:#000000;fill-opacity:1"
               d="m 424.25763,767.22625 c -0.19196,-0.12213 -2.5201,-3.98771 -5.17365,-8.59019 l -4.82463,-8.36814 0,-0.66111 0,-0.66111 1.30329,-0.69139 1.3033,-0.6914 0.45592,0.17496 0.45593,0.17495 4.83905,8.37778 4.83906,8.37777 0,0.72798 0,0.72798 -0.46689,0.66658 -0.46689,0.66657 -0.95774,-0.005 c -0.52676,-0.002 -1.11479,-0.10452 -1.30675,-0.22665 z"
               id="path5354"
               inkscape:connector-curvature="0" />
            <path
               style="fill:#000000;fill-opacity:1"
               d="m 541.90409,766.80678 -0.47801,-0.68245 0,-0.69759 0,-0.6976 4.86435,-8.41786 4.86434,-8.41787 0.38967,-0.14953 0.38967,-0.14953 0.86287,0.35742 c 0.47459,0.19657 1.14238,0.6178 1.48399,0.93606 l 0.62111,0.57865 -0.18908,0.52272 c -0.17988,0.49729 -3.23516,5.86509 -7.80883,13.71927 l -2.09581,3.59905 -1.21313,0.0909 -1.21313,0.0908 z"
               id="path5352"
               inkscape:connector-curvature="0" />
            <path
               style="fill:#000000;fill-opacity:1"
               d="m 407.29789,763.93341 c -0.87049,-1.00163 -4.32207,-5.92623 -4.51801,-6.44617 l -0.197,-0.52272 0.64616,-0.60199 0.64616,-0.60199 0.5439,0 0.5439,0 2.05008,2.77428 c 1.12754,1.52585 2.28999,3.14543 2.58322,3.59906 l 0.53314,0.82478 -0.49129,0.74981 -0.4913,0.7498 -0.6964,0 -0.69641,0 z"
               id="path5350"
               inkscape:connector-curvature="0" />
            <path
               style="fill:#000000;fill-opacity:1"
               d="m 559.42843,763.86551 -0.59279,-0.59279 0.21789,-0.58461 c 0.11984,-0.32154 1.26758,-2.01177 2.55054,-3.75608 l 2.33265,-3.17146 0.59158,0 0.59159,0 0.59278,0.59279 0.59279,0.59279 -0.21788,0.5859 c -0.11984,0.32224 -1.26192,2.01247 -2.53795,3.75607 l -2.32006,3.17018 -0.60417,0 -0.60418,0 z"
               id="path5348"
               inkscape:connector-curvature="0" />
            <path
               style="fill:#000000;fill-opacity:1"
               d="m 482.62819,750.8838 -1.6363,-0.9778 0,-9.89436 0,-9.89436 3.4491,0 3.4491,0 0,9.89436 0,9.89436 -1.6363,0.9778 c -0.89997,0.53779 -1.71573,0.97779 -1.8128,0.97779 -0.0971,0 -0.91283,-0.44 -1.8128,-0.97779 z"
               id="path5346"
               inkscape:connector-curvature="0" />
            <path
               style="fill:#000000;fill-opacity:1"
               d="m 430.83445,750.58693 c -0.16168,-0.2062 -0.9961,-1.97002 -1.85428,-3.91961 l -1.56031,-3.5447 0.0967,-0.50196 0.0967,-0.50195 0.79125,-0.37923 0.79124,-0.37924 0.43221,0.16585 0.43221,0.16586 0.77629,1.86066 c 0.42696,1.02337 1.22261,2.85254 1.76811,4.06483 l 0.99182,2.20416 -0.70407,0.57011 -0.70406,0.57012 -0.52989,0 -0.5299,0 -0.29395,-0.3749 z"
               id="path5344"
               inkscape:connector-curvature="0" />
            <path
               style="fill:#000000;fill-opacity:1"
               d="m 536.03733,750.37182 -0.59001,-0.59001 0.40739,-1.13454 c 0.22407,-0.62399 1.01175,-2.42922 1.75041,-4.01161 l 1.34302,-2.87707 0.4462,-0.17122 0.4462,-0.17123 0.71513,0.35654 0.71514,0.35653 0.10461,0.54318 0.1046,0.54318 -1.41102,3.19831 c -0.77606,1.75907 -1.60109,3.50197 -1.83341,3.87313 l -0.42239,0.67482 -0.59293,0 -0.59293,0 z"
               id="path5342"
               inkscape:connector-curvature="0" />
            <path
               style="fill:#000000;fill-opacity:1"
               d="m 443.68663,745.88887 -0.41491,-0.26052 -1.28204,-4.00283 -1.28203,-4.00283 0.26323,-0.49184 0.26323,-0.49185 0.83387,-0.16505 0.83388,-0.16506 0.34459,0.3533 0.34459,0.35329 1.28413,3.9841 1.28413,3.98409 -0.42904,0.40756 c -0.23597,0.22416 -0.69896,0.48644 -1.02887,0.58286 l -0.59985,0.1753 z"
               id="path5340"
               inkscape:connector-curvature="0" />
            <path
               style="fill:#000000;fill-opacity:1"
               d="m 523.83638,745.86517 c -0.35427,-0.14294 -0.73084,-0.40019 -0.83682,-0.57167 l -0.19268,-0.31177 1.24205,-3.98313 1.24205,-3.98313 0.4199,-0.33325 0.41991,-0.33324 0.74029,0.14152 0.74029,0.14151 0.33399,0.40243 0.33398,0.40243 -1.2545,3.9882 c -1.5584,4.95432 -1.63828,5.06555 -3.18846,4.4401 z"
               id="path5338"
               inkscape:connector-curvature="0" />
            <path
               style="fill:#000000;fill-opacity:1"
               d="m 456.42724,742.31089 c -0.29714,-0.4808 -1.67848,-7.2959 -1.67848,-8.28114 l 0,-0.98824 0.95957,-0.19192 0.95957,-0.19191 0.37503,0.37936 0.37503,0.37937 0.76485,3.54807 c 0.42067,1.95144 0.76485,3.86994 0.76485,4.26333 l 0,0.71526 -0.58013,0.31047 c -0.31907,0.17076 -0.85096,0.31048 -1.18198,0.31048 l -0.60186,0 z"
               id="path5336"
               inkscape:connector-curvature="0" />
            <path
               style="fill:#000000;fill-opacity:1"
               d="m 510.45918,742.24009 -0.52486,-0.3057 10e-4,-0.65992 c 8.9e-4,-0.36296 0.34458,-2.2795 0.7638,-4.25898 l 0.76222,-3.59906 0.40277,-0.40602 0.40277,-0.40601 0.90787,0.1994 0.90786,0.1994 0.14979,0.39036 0.1498,0.39036 -0.84864,4.07686 c -0.46675,2.24228 -0.93574,4.21781 -1.0422,4.39006 l -0.19357,0.3132 -0.65712,-0.009 c -0.36142,-0.005 -0.89331,-0.14669 -1.18199,-0.31483 z"
               id="path5334"
               inkscape:connector-curvature="0" />
            <path
               style="fill:#000000;fill-opacity:1"
               d="m 469.80856,740.08968 -0.30965,-0.3749 -0.37644,-4.0785 -0.37644,-4.0785 0.19007,-0.4953 0.19007,-0.49531 1.04143,0 1.04144,0 0.18853,0.30505 c 0.10369,0.16778 0.38954,2.22199 0.63521,4.56491 l 0.44668,4.25987 -0.52487,0.38379 -0.52487,0.3838 -0.65576,0 -0.65576,0 z"
               id="path5332"
               inkscape:connector-curvature="0" />
            <path
               style="fill:#000000;fill-opacity:1"
               d="m 496.92604,740.07968 -0.52622,-0.38478 0.47448,-4.30168 c 0.26097,-2.36592 0.54742,-4.41969 0.63656,-4.56392 l 0.16208,-0.26225 1.02147,0 1.02147,0 0.26608,0.52487 0.26608,0.52486 -0.43528,4.04894 -0.43527,4.04894 -0.30685,0.3749 -0.30686,0.37491 -0.65576,0 -0.65576,0 z"
               id="path5330"
               inkscape:connector-curvature="0" />
            <path
               style="fill:#000000;fill-opacity:1"
               d="m 330.88116,883.07726 c 0,-0.0825 0.0675,-0.14996 0.14996,-0.14996 0.0825,0 0.14996,0.0675 0.14996,0.14996 0,0.0825 -0.0675,0.14996 -0.14996,0.14996 -0.0825,0 -0.14996,-0.0675 -0.14996,-0.14996 z"
               id="path5328"
               inkscape:connector-curvature="0" />
            <path
               style="fill:#000000;fill-opacity:1"
               d="m 637.7009,883.07726 c 0,-0.0825 0.0675,-0.14996 0.14996,-0.14996 0.0825,0 0.14996,0.0675 0.14996,0.14996 0,0.0825 -0.0675,0.14996 -0.14996,0.14996 -0.0825,0 -0.14996,-0.0675 -0.14996,-0.14996 z"
               id="path5326"
               inkscape:connector-curvature="0" />
            <path
               style="fill:#000000;fill-opacity:1"
               d="m 330.88116,851.28558 c 0,-0.0825 0.0675,-0.14996 0.14996,-0.14996 0.0825,0 0.14996,0.0675 0.14996,0.14996 0,0.0825 -0.0675,0.14996 -0.14996,0.14996 -0.0825,0 -0.14996,-0.0675 -0.14996,-0.14996 z"
               id="path5324"
               inkscape:connector-curvature="0" />
            <path
               style="fill:#000000;fill-opacity:1"
               d="m 331.18108,844.98722 c 0,-0.0825 0.0675,-0.14996 0.14996,-0.14996 0.0825,0 0.14996,0.0675 0.14996,0.14996 0,0.0825 -0.0675,0.14996 -0.14996,0.14996 -0.0825,0 -0.14996,-0.0675 -0.14996,-0.14996 z"
               id="path4059"
               inkscape:connector-curvature="0" />
            <path
               inkscape:connector-curvature="0"
               id="path5253"
               d="m 498.5373,1003.0459 c 0,-0.082 0.0675,-0.15 0.14996,-0.15 0.0825,0 0.14996,0.067 0.14996,0.15 0,0.083 -0.0675,0.1499 -0.14996,0.1499 -0.0825,0 -0.14996,-0.067 -0.14996,-0.1499 z"
               style="fill:#000000;stroke:none" />
            <path
               inkscape:connector-curvature="0"
               id="path5251"
               d="m 470.34468,1000.4965 0,-0.3999 0.19995,0.2 0.19994,0.1999 -0.19994,0.2 -0.19995,0.1999 0,-0.3999 z"
               style="fill:#000000;stroke:none" />
            <path
               inkscape:connector-curvature="0"
               id="path5249"
               d="m 498.23738,1000.1966 0,-0.39987 0.19995,0.19994 0.19995,0.19993 -0.19995,0.2 -0.19995,0.1999 0,-0.3999 z"
               style="fill:#000000;stroke:none" />
            <path
               inkscape:connector-curvature="0"
               id="path5247"
               d="m 470.66828,997.6223 0.0237,-0.57485 0.15753,0.39364 0.15752,0.39365 -0.1812,0.1812 -0.1812,0.1812 0.0237,-0.57484 z"
               style="fill:#000000;stroke:none" />
            <path
               inkscape:connector-curvature="0"
               id="path5245"
               d="m 497.96114,997.32237 0.0237,-0.57485 0.15753,0.39365 0.15752,0.39365 -0.1812,0.1812 -0.1812,0.1812 0.0237,-0.57485 z"
               style="fill:#000000;stroke:none" />
            <path
               inkscape:connector-curvature="0"
               id="path5243"
               d="m 456.84821,996.74752 c 0,-0.0825 0.0675,-0.14996 0.14996,-0.14996 0.0825,0 0.14996,0.0675 0.14996,0.14996 0,0.0825 -0.0675,0.14997 -0.14996,0.14997 -0.0825,0 -0.14996,-0.0675 -0.14996,-0.14997 z"
               style="fill:#000000;stroke:none" />
            <path
               inkscape:connector-curvature="0"
               id="path5241"
               d="m 511.73385,996.74752 c 0,-0.0825 0.0675,-0.14996 0.14996,-0.14996 0.0825,0 0.14996,0.0675 0.14996,0.14996 0,0.0825 -0.0675,0.14997 -0.14996,0.14997 -0.0825,0 -0.14996,-0.0675 -0.14996,-0.14997 z"
               style="fill:#000000;stroke:none" />
            <path
               inkscape:connector-curvature="0"
               id="path5239"
               d="m 511.43393,995.24792 c 0,-0.0825 0.0675,-0.14996 0.14996,-0.14996 0.0825,0 0.14996,0.0675 0.14996,0.14996 0,0.0825 -0.0675,0.14996 -0.14996,0.14996 -0.0825,0 -0.14996,-0.0675 -0.14996,-0.14996 z"
               style="fill:#000000;stroke:none" />
            <path
               inkscape:connector-curvature="0"
               id="path5235"
               d="m 547.47196,978.18586 -4.54627,-7.88477 0,-0.49819 0,-0.4982 0.52486,0.004 0.52487,0.004 4.49882,7.80738 c 2.47435,4.29405 4.54076,7.92708 4.59203,8.07339 l 0.0932,0.26601 -0.57062,0.30539 -0.57062,0.30539 -4.54627,-7.88477 z"
               style="fill:#000000;stroke:none" />
            <path
               inkscape:connector-curvature="0"
               id="path5227"
               d="m 353.97512,895.37404 c 0,-0.0825 0.0675,-0.14996 0.14996,-0.14996 0.0825,0 0.14996,0.0675 0.14996,0.14996 0,0.0825 -0.0675,0.14996 -0.14996,0.14996 -0.0825,0 -0.14996,-0.0675 -0.14996,-0.14996 z"
               style="fill:#000000;stroke:none" />
            <path
               inkscape:connector-curvature="0"
               id="path5225"
               d="m 355.1748,895.07412 c 0,-0.0825 0.0675,-0.14996 0.14997,-0.14996 0.0825,0 0.14996,0.0675 0.14996,0.14996 0,0.0825 -0.0675,0.14996 -0.14996,0.14996 -0.0825,0 -0.14997,-0.0675 -0.14997,-0.14996 z"
               style="fill:#000000;stroke:none" />
            <path
               inkscape:connector-curvature="0"
               id="path5223"
               d="m 613.40725,895.07412 c 0,-0.0825 0.0675,-0.14996 0.14996,-0.14996 0.0825,0 0.14997,0.0675 0.14997,0.14996 0,0.0825 -0.0675,0.14996 -0.14997,0.14996 -0.0825,0 -0.14996,-0.0675 -0.14996,-0.14996 z"
               style="fill:#000000;stroke:none" />
            <path
               inkscape:connector-curvature="0"
               id="path5219"
               d="m 348.97643,881.82759 0.19994,-0.19995 0.19995,0.19995 0.19995,0.19994 -0.3999,0 -0.39989,0 0.19995,-0.19994 z"
               style="fill:#000000;stroke:none" />
            <path
               inkscape:connector-curvature="0"
               id="path5217"
               d="m 351.67572,881.52766 0.19995,-0.19994 0.19995,0.19994 0.19994,0.19995 -0.39989,0 -0.3999,0 0.19995,-0.19995 z"
               style="fill:#000000;stroke:none" />
            <path
               inkscape:connector-curvature="0"
               id="path5215"
               d="m 616.80636,881.52766 0.19995,-0.19994 0.19995,0.19994 0.19995,0.19995 -0.3999,0 -0.39989,0 0.19994,-0.19995 z"
               style="fill:#000000;stroke:none" />
            <path
               inkscape:connector-curvature="0"
               id="path5213"
               d="m 354.67494,881.22774 0.19994,-0.19994 0.19995,0.19994 0.19995,0.19995 -0.3999,0 -0.39989,0 0.19995,-0.19995 z"
               style="fill:#000000;stroke:none" />
            <path
               inkscape:connector-curvature="0"
               id="path5211"
               d="m 613.95086,881.22274 0.39365,-0.15752 0.1812,0.1812 0.1812,0.1812 -0.57485,-0.0237 -0.57485,-0.0237 0.39365,-0.15753 z"
               style="fill:#000000;stroke:none" />
            <path
               inkscape:connector-curvature="0"
               id="path5201"
               d="m 354.20006,853.93612 0.3749,-0.15128 0.3749,0.15128 0.37491,0.15128 -0.74981,0 -0.7498,0 0.3749,-0.15128 z"
               style="fill:#000000;stroke:none" />
            <path
               inkscape:connector-curvature="0"
               id="path5199"
               d="m 614.25078,853.93012 0.39365,-0.15752 0.1812,0.1812 0.1812,0.1812 -0.57484,-0.0237 -0.57485,-0.0237 0.39364,-0.15752 z"
               style="fill:#000000;stroke:none" />
            <path
               inkscape:connector-curvature="0"
               id="path5197"
               d="m 617.10628,853.63513 0.19995,-0.19995 0.19995,0.19995 0.19995,0.19994 -0.3999,0 -0.39989,0 0.19994,-0.19995 z"
               style="fill:#000000;stroke:none" />
            <path
               inkscape:connector-curvature="0"
               id="path5195"
               d="m 355.1748,840.18848 c 0,-0.0825 0.0675,-0.14996 0.14997,-0.14996 0.0825,0 0.14996,0.0675 0.14996,0.14996 0,0.0825 -0.0675,0.14996 -0.14996,0.14996 -0.0825,0 -0.14997,-0.0675 -0.14997,-0.14996 z"
               style="fill:#000000;stroke:none" />
            <path
               inkscape:connector-curvature="0"
               id="path5193"
               d="m 613.40725,840.18848 c 0,-0.0825 0.0675,-0.14996 0.14996,-0.14996 0.0825,0 0.14997,0.0675 0.14997,0.14996 0,0.0825 -0.0675,0.14996 -0.14997,0.14996 -0.0825,0 -0.14996,-0.0675 -0.14996,-0.14996 z"
               style="fill:#000000;stroke:none" />
            <path
               inkscape:connector-curvature="0"
               id="path5191"
               d="m 614.90686,839.88856 c 0,-0.0825 0.0675,-0.14996 0.14996,-0.14996 0.0825,0 0.14996,0.0675 0.14996,0.14996 0,0.0825 -0.0675,0.14996 -0.14996,0.14996 -0.0825,0 -0.14996,-0.0675 -0.14996,-0.14996 z"
               style="fill:#000000;stroke:none" />
            <path
               inkscape:connector-curvature="0"
               id="path5189"
               d="m 357.27426,826.39209 c 0,-0.0825 0.0675,-0.14996 0.14996,-0.14996 0.0825,0 0.14996,0.0675 0.14996,0.14996 0,0.0825 -0.0675,0.14996 -0.14996,0.14996 -0.0825,0 -0.14996,-0.0675 -0.14996,-0.14996 z"
               style="fill:#000000;stroke:none" />
            <path
               inkscape:connector-curvature="0"
               id="path5177"
               d="m 511.43393,740.01468 c 0,-0.0825 0.0675,-0.14996 0.14996,-0.14996 0.0825,0 0.14996,0.0675 0.14996,0.14996 0,0.0825 -0.0675,0.14996 -0.14996,0.14996 -0.0825,0 -0.14996,-0.0675 -0.14996,-0.14996 z"
               style="fill:#000000;stroke:none" />
            <path
               inkscape:connector-curvature="0"
               id="path5175"
               d="m 456.84821,738.51508 c 0,-0.0825 0.0675,-0.14997 0.14996,-0.14997 0.0825,0 0.14996,0.0675 0.14996,0.14997 0,0.0825 -0.0675,0.14996 -0.14996,0.14996 -0.0825,0 -0.14996,-0.0675 -0.14996,-0.14996 z"
               style="fill:#000000;stroke:none" />
            <path
               inkscape:connector-curvature="0"
               id="path5173"
               d="m 497.93746,738.06519 0,-0.39989 0.19995,0.19995 0.19994,0.19994 -0.19994,0.19995 -0.19995,0.19995 0,-0.3999 z"
               style="fill:#000000;stroke:none" />
            <path
               inkscape:connector-curvature="0"
               id="path5171"
               d="m 470.6446,737.76527 0,-0.39989 0.19995,0.19994 0.19994,0.19995 -0.19994,0.19995 -0.19995,0.19995 0,-0.3999 z"
               style="fill:#000000;stroke:none" />
            <path
               inkscape:connector-curvature="0"
               id="path5169"
               d="m 456.54829,737.01547 c 0,-0.0825 0.0675,-0.14996 0.14996,-0.14996 0.0825,0 0.14996,0.0675 0.14996,0.14996 0,0.0825 -0.0675,0.14996 -0.14996,0.14996 -0.0825,0 -0.14996,-0.0675 -0.14996,-0.14996 z"
               style="fill:#000000;stroke:none" />
            <path
               inkscape:connector-curvature="0"
               id="path5167"
               d="m 498.23738,735.06598 0,-0.3999 0.19995,0.19995 0.19995,0.19995 -0.19995,0.19995 -0.19995,0.19994 0,-0.39989 z"
               style="fill:#000000;stroke:none" />
            <path
               inkscape:connector-curvature="0"
               id="path5165"
               d="m 470.34468,734.76606 0,-0.3999 0.19995,0.19995 0.19994,0.19995 -0.19994,0.19994 -0.19995,0.19995 0,-0.39989 z"
               style="fill:#000000;stroke:none" />
            <path
               sodipodi:nodetypes="cscc"
               inkscape:connector-curvature="0"
               id="path5163"
               d="m 474.24366,1020.7412 c 0,-0.082 0.0675,-0.1499 0.14996,-0.1499 0.0825,0 0.14996,0.067 0.14996,0.1499 -0.0195,0.3269 -0.29874,0 -0.29992,0 z"
               style="fill:#000000;stroke:none" />
            <path
               inkscape:connector-curvature="0"
               id="path5161"
               d="m 637.40098,877.67867 c 0,-0.0825 0.0675,-0.14996 0.14996,-0.14996 0.0825,0 0.14996,0.0675 0.14996,0.14996 0,0.0825 -0.0675,0.14996 -0.14996,0.14996 -0.0825,0 -0.14996,-0.0675 -0.14996,-0.14996 z"
               style="fill:#000000;stroke:none" />
            <path
               inkscape:connector-curvature="0"
               id="path4013"
               d="m 331.26686,859.08354 0.004,-1.49961 0.12534,0.82891 c 0.0689,0.4559 0.0671,1.13072 -0.004,1.4996 l -0.12944,0.6707 0.004,-1.4996 z"
               style="fill:#000000;stroke:none" />
            <path
               id="path5485"
               d="m 602.62101,939.74187 c -0.35563,-0.16734 -4.56168,-2.91361 -14.93471,-9.75133 l -1.20679,-0.79549 -0.32136,-0.63852 -0.32135,-0.63852 0.25117,-0.86124 0.25116,-0.86124 0.72855,-0.36107 c 0.40036,-0.19926 0.92316,-0.34194 1.16123,-0.31812 0.23807,0.0239 4.05016,2.41957 8.47132,5.32388 l 8.03846,5.28057 0.32502,0.64582 0.32502,0.64581 -0.78855,1.07521 c -0.91184,1.24334 -1.37669,1.53803 -1.97897,1.25463 z"
               style="fill:#000000;fill-opacity:1"
               inkscape:connector-curvature="0" />
            <path
               style="fill:#000000;stroke:none"
               d="m 595.31386,933.30006 -7.6056,-4.99929 -0.22397,-0.44501 -0.22397,-0.44502 0.47063,-0.23238 0.47065,-0.23239 7.52842,4.95149 c 4.14064,2.72333 7.61971,5.03957 7.73128,5.14721 l 0.20284,0.19572 -0.37242,0.52931 -0.37242,0.52932 -7.60561,-4.99929 z"
               id="path5487"
               inkscape:connector-curvature="0" />
            <g
               id="g5531"
               transform="matrix(-0.95494914,-0.00806255,-0.00806255,0.95494914,952.94276,30.14128)"
               inkscape:transform-center-x="21.753462"
               inkscape:transform-center-y="-49.497748">
              <g
                 inkscape:transform-center-x="-3.0018806e-05"
                 inkscape:transform-center-y="-49.862994"
                 transform="matrix(1.1663866,0,0,1.1663866,-387.68757,-79.093414)"
                 id="g5515">
                <rect
                   style="fill:#000000;fill-opacity:1;stroke:none"
                   id="rect5489"
                   width="5.8289657"
                   height="97.571815"
                   x="743.65302"
                   y="740.59869"
                   ry="0" />
                <path
                   style="fill:#000000;fill-opacity:1;fill-rule:nonzero;stroke:none"
                   d="m 745.94029,744.17559 c -3.16407,-0.0714 -6.33375,-1.95465 -9.49783,-6.09295 -0.008,-2.82227 0.35524,-5.67379 1.45604,-8.4898 0.15337,-0.40977 0.32969,-0.8025 0.51521,-1.20963 1.27042,-2.78804 3.3322,-5.52548 6.65296,-8.109 0.46943,-0.37107 0.98244,-0.7336 1.50084,-1.09763 0.5184,0.36403 1.03141,0.72656 1.50084,1.09763 3.32076,2.58352 5.38254,5.32096 6.65296,8.109 0.18552,0.40713 0.36184,0.79986 0.51521,1.20963 1.1008,2.81601 1.46381,5.66753 1.45604,8.4898 -3.37502,4.41418 -6.75004,6.27239 -10.12505,6.09295 -0.21094,0.0112 -0.41628,0.005 -0.62722,0 z"
                   id="rect5509"
                   inkscape:connector-curvature="0" />
              </g>
              <g
                 inkscape:transform-center-x="27.334087"
                 transform="matrix(0.53895464,0.45554955,-0.45554955,0.53895464,421.43737,55.491203)"
                 inkscape:transform-center-y="-3.6975839"
                 id="g5519">
                <g
                   inkscape:transform-center-x="28.823046"
                   transform="matrix(0.63328057,0.7739223,-0.7739223,0.63328057,974.45072,-270.74568)"
                   id="g5525"
                   inkscape:transform-center-y="-0.25360737">
                  <rect
                     style="fill:#000000;fill-opacity:1;stroke:none"
                     id="rect5521"
                     width="19.878271"
                     height="104.89792"
                     x="742.40729"
                     y="739.92346"
                     ry="0"
                     transform="matrix(0.99999959,9.0990224e-4,8.4636404e-4,0.99999964,0,0)" />
                  <path
                     style="fill:#000000;fill-opacity:1;fill-rule:nonzero;stroke:none"
                     d="m 751.79469,746.64626 c -5.94027,-0.12331 -11.89108,-3.37555 -17.83137,-10.52211 -0.015,-4.87387 0.66694,-9.79825 2.73359,-14.66131 0.28794,-0.70764 0.61897,-1.38586 0.96727,-2.08895 2.3851,-4.81475 6.25592,-9.54212 12.49036,-14.00369 0.88132,-0.64081 1.84445,-1.26687 2.8177,-1.89553 0.97325,0.62866 1.93638,1.25472 2.8177,1.89553 6.23444,4.46157 10.10526,9.18894 12.49036,14.00369 0.3483,0.70309 0.67933,1.38131 0.96727,2.08895 2.06665,4.86306 2.74817,9.78744 2.73359,14.66131 -6.33632,7.62299 -12.67263,10.83199 -19.00892,10.52211 -0.39602,0.0193 -0.78153,0.009 -1.17755,0 z"
                     id="path5523"
                     inkscape:connector-curvature="0" />
                </g>
              </g>
              <path
                 sodipodi:open="true"
                 sodipodi:end="6.2784374"
                 sodipodi:start="0"
                 transform="matrix(1.1663866,0,0,1.1663866,-257.66171,682.38454)"
                 d="m 646.75,165.86218 c 0,6.35128 -5.14873,11.5 -11.5,11.5 -6.35127,0 -11.5,-5.14872 -11.5,-11.5 0,-6.35127 5.14873,-11.5 11.5,-11.5 6.32996,0 11.46982,5.11551 11.49987,11.4454"
                 sodipodi:ry="11.5"
                 sodipodi:rx="11.5"
                 sodipodi:cy="165.86218"
                 sodipodi:cx="635.25"
                 id="path5529"
                 style="fill:#000000;fill-opacity:1;fill-rule:nonzero;stroke:none"
                 sodipodi:type="arc" />
            </g>
          </g>
          <path
             sodipodi:end="6.2784374"
             sodipodi:start="0"
             transform="matrix(1.0087525,0,0,1.0087525,168.69453,640.09919)"
             d="m 464,524.86218 c 0,82.56657 -66.93343,149.5 -149.5,149.5 -82.56657,0 -149.5,-66.93343 -149.5,-149.5 0,-82.56657 66.93343,-149.5 149.5,-149.5 82.28951,0 149.10761,66.50161 149.49831,148.79019"
             sodipodi:ry="149.5"
             sodipodi:rx="149.5"
             sodipodi:cy="524.86218"
             sodipodi:cx="314.5"
             id="path5581"
             style="fill:none;stroke:#000000;stroke-width:15.03441143;stroke-miterlimit:4;stroke-opacity:1;stroke-dasharray:none"
             sodipodi:type="arc"
             sodipodi:open="true" />
        </g>
        <g
           transform="translate(-5.8042277,-134.64358)"
           id="text5265"
           style="font-size:573.95385742px;font-style:normal;font-weight:normal;line-height:125%;letter-spacing:0px;word-spacing:0px;fill:#000000;fill-opacity:1;stroke:none;font-family:Sans">
          <path
             sodipodi:nodetypes="ccccccccccccscccsccccscscssccccccccc"
             inkscape:connector-curvature="0"
             id="path5270"
             d="m 588.70667,1182.3484 c 0.026,-0.022 14.04662,9.1406 21.95456,18.6066 l 2.12132,195.6581 c 27.27732,-4.1103 48.57637,-16.5348 63.8972,-37.2734 15.50673,-20.9253 23.26034,-47.9228 23.26083,-80.9925 -4.9e-4,-19.9911 -2.98983,-38.7678 -8.96803,-56.3305 -5.79233,-17.5621 -14.66693,-33.8166 -26.62384,-48.7636 -19.43116,-24.4749 -43.15905,-43.1583 -71.18373,-56.0502 -27.83861,-13.078 -58.1991,-19.6172 -91.08154,-19.6176 -22.98085,4e-4 -45.02723,3.0832 -66.13922,9.2483 -21.11244,5.9791 -40.63657,14.9471 -58.57244,26.9041 -29.33306,19.0574 -52.31362,44.0931 -68.94172,75.1073 -16.44147,30.8278 -24.66216,64.271 -24.66208,100.3298 -8e-5,29.7067 5.32469,57.5449 15.9743,83.5147 10.83627,25.97 26.43689,48.8571 46.80191,68.6615 19.6174,19.4307 42.3177,34.1906 68.10097,44.2797 25.78284,10.2758 53.34082,15.4137 82.67401,15.4138 24.10127,-10e-5 47.73574,-4.1104 70.90348,-12.3311 23.35386,-8.0339 44.74632,-19.6176 64.17746,-34.7511 l 25.22258,31.1079 c -23.35467,18.1228 -48.85748,31.9485 -76.5085,41.4771 -27.46493,9.7153 -55.39658,14.5729 -83.79502,14.573 -34.56453,-10e-5 -67.16702,-6.1656 -97.80756,-18.4965 -30.64093,-12.1443 -57.91866,-29.8935 -81.83327,-53.2477 -23.91483,-23.3542 -42.13112,-50.3517 -54.64893,-80.9925 -12.51791,-30.8275 -18.77684,-63.8971 -18.77681,-99.2088 -3e-5,-34.0036 6.35231,-66.4193 19.05707,-97.2471 12.70463,-30.8273 30.82751,-57.9182 54.36867,-81.2728 24.10144,-23.7275 51.93967,-41.8504 83.51477,-54.3686 31.57471,-12.7043 65.01795,-19.0567 100.32983,-19.0571 39.60846,4e-4 76.32129,8.1277 110.1386,24.3818 34.00334,16.255 62.49549,39.3289 85.47653,69.222 14.01204,18.31 24.66156,38.2078 31.9486,59.6935 7.47283,21.4861 11.20951,43.7193 11.21004,66.6997 -5.3e-4,49.1374 -14.85382,87.9054 -44.55989,116.3041 -29.70706,28.3988 -107.03015,36.2796 -107.03015,36.2796" />
        </g>
      </g>
    </g>
    <text
       xml:space="preserve"
       style="font-size:132.29595947px;font-style:normal;font-weight:normal;line-height:125%;letter-spacing:0px;word-spacing:0px;fill:#000000;fill-opacity:1;stroke:none;font-family:Sans"
       x="173.75404"
       y="116.73923"
       id="text5962"
       sodipodi:linespacing="125%"><tspan
         sodipodi:role="line"
         x="173.75404"
         y="116.73923"
         style="font-style:normal;font-variant:normal;font-weight:normal;font-stretch:normal;font-family:Linux Libertine Display;-inkscape-font-specification:Linux Libertine Display"
         id="tspan5966" /></text>
    <text
       xml:space="preserve"
       style="font-size:61.8866539px;font-style:normal;font-weight:normal;line-height:125%;letter-spacing:0px;word-spacing:0px;fill:#000000;fill-opacity:1;stroke:none;font-family:Sans"
       x="225.48668"
       y="1008.7101"
       id="text5970"
       sodipodi:linespacing="125%"><tspan
         sodipodi:role="line"
         id="tspan5972"
         x="225.48668"
         y="1008.7101">[moment]</tspan></text>
  </g>
</svg>
